<svg xmlns="http://www.w3.org/2000/svg" viewBox="0 0 940 400" font-family="'JetBrains Mono','Fira Code',ui-monospace,'Cascadia Code',monospace" font-size="15">
  <rect x="1" y="1" width="938" height="398" rx="12" fill="#16161e" stroke="#2a2e42"/>
  <circle cx="26" cy="26" r="6" fill="#f7768e"/>
  <circle cx="46" cy="26" r="6" fill="#e0af68"/>
  <circle cx="66" cy="26" r="6" fill="#9ece6a"/>
  <text x="470" y="31" fill="#565f89" text-anchor="middle">DockerSmith 1.2.0</text>

  <!-- tab bar -->
  <text x="34" y="66" fill="#565f89">Images</text>
  <rect x="118" y="48" width="112" height="26" rx="6" fill="#20233a"/>
  <text x="126" y="66" fill="#7aa2f7" font-weight="bold">Containers</text>
  <text x="238" y="66" fill="#565f89">Space</text>
  <line x1="20" y1="84" x2="920" y2="84" stroke="#2a2e42"/>

  <!-- header -->
  <text x="28"  y="112" fill="#9ece6a" font-weight="bold">NAME</text>
  <text x="220" y="112" fill="#9ece6a" font-weight="bold">IMAGE</text>
  <text x="500" y="112" fill="#9ece6a" font-weight="bold">STATE</text>
  <text x="620" y="112" fill="#9ece6a" font-weight="bold">CPU%</text>
  <text x="690" y="112" fill="#9ece6a" font-weight="bold">MEM</text>
  <text x="810" y="112" fill="#9ece6a" font-weight="bold">UPDATE</text>

  <rect x="20" y="122" width="900" height="26" fill="#20233a"/>

  <g>
    <text x="28" y="141" fill="#7aa2f7">grafana</text>
    <text x="220" y="141" fill="#c0caf5">grafana/grafana</text>
    <text x="500" y="141" fill="#9ece6a">Up 6 hours</text>
    <text x="620" y="141" fill="#c0caf5">1.8</text>
    <text x="690" y="141" fill="#c0caf5">148 MB (7%)</text>
    <text x="810" y="141" fill="#e0af68">11.4.0 → 11.5.1</text>
  </g>
  <g>
    <text x="28" y="169" fill="#c0caf5">webserver</text>
    <text x="220" y="169" fill="#c0caf5">nginx:latest</text>
    <text x="500" y="169" fill="#9ece6a">Up 3 days</text>
    <text x="620" y="169" fill="#c0caf5">0.4</text>
    <text x="690" y="169" fill="#c0caf5">22 MB (4%)</text>
    <text x="810" y="169" fill="#9ece6a">up to date</text>
  </g>
  <g>
    <text x="28" y="197" fill="#c0caf5">api</text>
    <text x="220" y="197" fill="#c0caf5">acme/api</text>
    <text x="500" y="197" fill="#9ece6a">Up 2 days</text>
    <text x="620" y="197" fill="#c0caf5">3.1</text>
    <text x="690" y="197" fill="#c0caf5">96 MB (12%)</text>
    <text x="810" y="197" fill="#e0af68">2.1.0 → 2.2.0</text>
  </g>
  <g>
    <text x="28" y="225" fill="#c0caf5">db</text>
    <text x="220" y="225" fill="#c0caf5">postgres:16-alpine</text>
    <text x="500" y="225" fill="#9ece6a">Up 3 days</text>
    <text x="620" y="225" fill="#c0caf5">0.2</text>
    <text x="690" y="225" fill="#c0caf5">210 MB (10%)</text>
    <text x="810" y="225" fill="#9ece6a">up to date</text>
  </g>
  <g>
    <text x="28" y="253" fill="#c0caf5">cache</text>
    <text x="220" y="253" fill="#c0caf5">redis:7-alpine</text>
    <text x="500" y="253" fill="#9ece6a">Up 3 days</text>
    <text x="620" y="253" fill="#c0caf5">0.1</text>
    <text x="690" y="253" fill="#c0caf5">12 MB (2%)</text>
    <text x="810" y="253" fill="#9ece6a">up to date</text>
  </g>
  <g>
    <text x="28" y="281" fill="#c0caf5">vault</text>
    <text x="220" y="281" fill="#c0caf5">vaultwarden/server</text>
    <text x="500" y="281" fill="#565f89">Exited (0)</text>
    <text x="620" y="281" fill="#565f89">—</text>
    <text x="690" y="281" fill="#565f89">—</text>
    <text x="810" y="281" fill="#e0af68">1.32.0 → 1.33.0</text>
  </g>

  <line x1="20" y1="322" x2="920" y2="322" stroke="#2a2e42"/>
  <text x="24" y="348" fill="#9ece6a">●</text>
  <text x="42" y="348" fill="#c0caf5">6 images · 6 containers</text>
  <text x="24" y="374" fill="#565f89">q quit · : palette · u check · ⏎ details · a apply · s start/stop · R restart · L logs · x rm · p prune · ? help</text>
</svg>
