<svg xmlns="http://www.w3.org/2000/svg" viewBox="0 0 940 430" font-family="'JetBrains Mono','Fira Code',ui-monospace,'Cascadia Code',monospace" font-size="15">
  <rect x="1" y="1" width="938" height="428" rx="12" fill="#16161e" stroke="#2a2e42"/>
  <!-- window chrome -->
  <circle cx="26" cy="26" r="6" fill="#f7768e"/>
  <circle cx="46" cy="26" r="6" fill="#e0af68"/>
  <circle cx="66" cy="26" r="6" fill="#9ece6a"/>
  <text x="470" y="31" fill="#565f89" text-anchor="middle">DockerSmith 1.2.0</text>

  <!-- tab bar -->
  <rect x="20" y="48" width="90" height="26" rx="6" fill="#20233a"/>
  <text x="34" y="66" fill="#7aa2f7" font-weight="bold">Images</text>
  <text x="126" y="66" fill="#565f89">Containers</text>
  <text x="238" y="66" fill="#565f89">Space</text>
  <line x1="20" y1="84" x2="920" y2="84" stroke="#2a2e42"/>

  <!-- header -->
  <text x="28"  y="112" fill="#9ece6a" font-weight="bold">IMAGE</text>
  <text x="300" y="112" fill="#9ece6a" font-weight="bold">VERSION</text>
  <text x="420" y="112" fill="#9ece6a" font-weight="bold">DATE</text>
  <text x="560" y="112" fill="#9ece6a" font-weight="bold">SOURCE</text>
  <text x="650" y="112" fill="#9ece6a" font-weight="bold">SIZE</text>
  <text x="760" y="112" fill="#9ece6a" font-weight="bold">UPDATE</text>

  <!-- selected row highlight -->
  <rect x="20" y="122" width="900" height="26" fill="#20233a"/>

  <!-- rows -->
  <g>
    <text x="28" y="141" fill="#c0caf5">grafana/grafana:11.4.0</text>
    <text x="300" y="141" fill="#c0caf5">11.4.0</text>
    <text x="420" y="141" fill="#565f89">2026-06-20</text>
    <text x="560" y="141" fill="#9ece6a">docker</text>
    <text x="650" y="141" fill="#c0caf5">612 MB</text>
    <text x="760" y="141" fill="#e0af68">11.4.0 → 11.5.1</text>
  </g>
  <g>
    <text x="28" y="169" fill="#c0caf5">nginx:latest</text>
    <text x="300" y="169" fill="#c0caf5">1.27.3</text>
    <text x="420" y="169" fill="#565f89">2026-06-14</text>
    <text x="560" y="169" fill="#9ece6a">docker</text>
    <text x="650" y="169" fill="#c0caf5">187 MB</text>
    <text x="760" y="169" fill="#9ece6a">up to date (1.27.3)</text>
  </g>
  <g>
    <text x="28" y="197" fill="#c0caf5">acme/api:2.1.0</text>
    <text x="300" y="197" fill="#c0caf5">2.1.0</text>
    <text x="420" y="197" fill="#565f89">2026-05-30</text>
    <text x="560" y="197" fill="#9ece6a">ghcr</text>
    <text x="650" y="197" fill="#c0caf5">94 MB</text>
    <text x="760" y="197" fill="#e0af68">2.1.0 → 2.2.0</text>
  </g>
  <g>
    <text x="28" y="225" fill="#c0caf5">linuxserver/radarr:5.14.0</text>
    <text x="300" y="225" fill="#c0caf5">5.14.0</text>
    <text x="420" y="225" fill="#565f89">2026-06-28</text>
    <text x="560" y="225" fill="#9ece6a">lscr</text>
    <text x="650" y="225" fill="#c0caf5">241 MB</text>
    <text x="760" y="225" fill="#9ece6a">up to date (5.14.0)</text>
  </g>
  <g>
    <text x="28" y="253" fill="#c0caf5">vaultwarden/server:1.32.0</text>
    <text x="300" y="253" fill="#c0caf5">1.32.0</text>
    <text x="420" y="253" fill="#565f89">2026-06-10</text>
    <text x="560" y="253" fill="#9ece6a">docker</text>
    <text x="650" y="253" fill="#c0caf5">58 MB</text>
    <text x="760" y="253" fill="#e0af68">1.32.0 → 1.33.0</text>
  </g>
  <g>
    <text x="28" y="281" fill="#c0caf5">postgres:16-alpine</text>
    <text x="300" y="281" fill="#c0caf5">16.3</text>
    <text x="420" y="281" fill="#565f89">2026-04-21</text>
    <text x="560" y="281" fill="#9ece6a">docker</text>
    <text x="650" y="281" fill="#c0caf5">246 MB</text>
    <text x="760" y="281" fill="#565f89">checking…</text>
  </g>
  <g>
    <text x="28" y="309" fill="#c0caf5">redis:7-alpine</text>
    <text x="300" y="309" fill="#c0caf5">7.4.1</text>
    <text x="420" y="309" fill="#565f89">2026-06-01</text>
    <text x="560" y="309" fill="#9ece6a">docker</text>
    <text x="650" y="309" fill="#c0caf5">41 MB</text>
    <text x="760" y="309" fill="#9ece6a">up to date (7.4.1)</text>
  </g>

  <!-- footer -->
  <line x1="20" y1="352" x2="920" y2="352" stroke="#2a2e42"/>
  <text x="24" y="378" fill="#9ece6a">●</text>
  <text x="42" y="378" fill="#c0caf5">update available: grafana/grafana:11.4.0 → 11.5.1</text>
  <text x="24" y="404" fill="#565f89">q quit · : palette · ⇥ tab · u/U check · ⏎ details · w changelog · d defer · p prune · T theme · ? help</text>
</svg>
